<svg xmlns="http://www.w3.org/2000/svg" viewBox="0 0 499 500" width="499" height="500">
  <circle cx="249.64" cy="250.19" r="239.75" fill="#280F63"/>
  <circle cx="249.64" cy="250.19" r="245.33" fill="none" stroke="#EDB425" stroke-width="11.16"/>
  <path fill="#EDB425" fill-rule="evenodd" d="M 335.00 80.50 L 163.00 80.50 L 162.50 70.00 L 335.00 69.50 L 335.00 80.50 Z"/><path fill="#EDB425" fill-rule="evenodd" d="M 310.00 106.50 L 188.00 106.50 L 187.50 97.00 L 189.00 95.50 L 309.00 95.50 L 310.50 97.00 L 310.00 106.50 Z"/><path fill="#EDB425" fill-rule="evenodd" d="M 357.00 176.50 L 346.00 176.50 L 345.00 175.50 L 343.00 175.50 L 342.00 174.50 L 341.00 174.50 L 340.00 173.50 L 337.00 172.50 L 334.00 169.50 L 333.00 169.50 L 330.50 167.00 L 330.50 166.00 L 328.50 164.00 L 328.50 163.00 L 326.50 160.00 L 326.50 158.00 L 325.50 157.00 L 325.50 155.00 L 324.50 154.00 L 324.50 150.00 L 325.00 149.50 L 335.00 149.50 L 335.50 150.00 L 335.50 153.00 L 336.50 154.00 L 336.50 156.00 L 337.50 157.00 L 337.50 158.00 L 343.00 163.50 L 344.00 163.50 L 347.00 165.50 L 357.00 165.50 L 358.00 164.50 L 361.00 163.50 L 365.50 159.00 L 365.50 158.00 L 367.50 155.00 L 367.50 153.00 L 368.50 152.00 L 368.50 147.00 L 367.50 146.00 L 367.50 143.00 L 366.50 142.00 L 366.50 141.00 L 361.00 135.50 L 360.00 135.50 L 357.00 133.50 L 354.00 133.50 L 353.00 132.50 L 145.00 132.50 L 144.00 133.50 L 141.00 133.50 L 140.00 134.50 L 137.00 135.50 L 132.50 140.00 L 132.50 141.00 L 130.50 144.00 L 130.50 146.00 L 129.50 147.00 L 129.50 152.00 L 130.50 153.00 L 130.50 155.00 L 131.50 156.00 L 132.50 159.00 L 137.00 163.50 L 138.00 163.50 L 141.00 165.50 L 151.00 165.50 L 152.00 164.50 L 155.00 163.50 L 160.50 158.00 L 160.50 157.00 L 161.50 156.00 L 161.50 154.00 L 162.50 153.00 L 162.50 150.00 L 163.00 149.50 L 173.00 149.50 L 173.50 150.00 L 173.50 154.00 L 172.50 155.00 L 172.50 158.00 L 171.50 159.00 L 171.50 160.00 L 170.50 161.00 L 169.50 164.00 L 167.50 166.00 L 167.50 167.00 L 165.00 169.50 L 164.00 169.50 L 161.00 172.50 L 160.00 172.50 L 155.00 175.50 L 152.00 175.50 L 151.00 176.50 L 141.00 176.50 L 140.00 175.50 L 137.00 175.50 L 136.00 174.50 L 135.00 174.50 L 134.00 173.50 L 131.00 172.50 L 123.50 165.00 L 123.50 164.00 L 120.50 159.00 L 120.50 157.00 L 119.50 156.00 L 119.50 152.00 L 118.50 151.00 L 118.50 148.00 L 119.50 147.00 L 119.50 142.00 L 121.50 139.00 L 121.50 137.00 L 123.50 135.00 L 123.50 134.00 L 127.50 130.00 L 127.50 129.00 L 129.00 128.50 L 131.00 126.50 L 132.00 126.50 L 134.00 124.50 L 136.00 124.50 L 137.00 123.50 L 139.00 123.50 L 140.00 122.50 L 358.00 122.50 L 359.00 123.50 L 361.00 123.50 L 362.00 124.50 L 364.00 124.50 L 365.00 125.50 L 366.00 125.50 L 369.00 128.50 L 370.00 128.50 L 370.50 130.00 L 375.50 135.00 L 375.50 136.00 L 377.50 139.00 L 377.50 141.00 L 378.50 142.00 L 378.50 146.00 L 379.50 147.00 L 379.50 152.00 L 378.50 153.00 L 378.50 157.00 L 377.50 158.00 L 377.50 159.00 L 376.50 160.00 L 376.50 162.00 L 374.50 164.00 L 374.50 165.00 L 367.00 172.50 L 366.00 172.50 L 361.00 175.50 L 358.00 175.50 L 357.00 176.50 Z"/><path fill="#EDB425" fill-rule="evenodd" d="M 309.00 430.50 L 189.00 430.50 L 187.50 429.00 L 188.00 149.50 L 310.50 150.00 L 310.50 429.00 L 309.00 430.50 Z M 215.50 419.00 L 215.50 161.00 L 199.00 160.50 L 198.50 418.00 L 200.00 419.50 L 215.50 419.00 Z M 243.50 419.00 L 243.50 161.00 L 227.00 160.50 L 226.50 419.00 L 243.50 419.00 Z M 271.50 419.00 L 271.50 161.00 L 255.00 160.50 L 254.50 419.00 L 271.50 419.00 Z M 299.50 419.00 L 299.50 161.00 L 283.00 160.50 L 282.50 419.00 L 299.50 419.00 Z"/>
</svg>